<?xml version="1.0" encoding="utf-8"?>
<!-- Generator: Adobe Illustrator 16.0.4, SVG Export Plug-In . SVG Version: 6.00 Build 0)  -->
<!DOCTYPE svg PUBLIC "-//W3C//DTD SVG 1.1//EN" "http://www.w3.org/Graphics/SVG/1.1/DTD/svg11.dtd">
<svg version="1.1" id="giraf_2" xmlns="http://www.w3.org/2000/svg" xmlns:xlink="http://www.w3.org/1999/xlink" x="0px" y="0px"
	 width="243.329px" height="144.258px" viewBox="0 0 243.329 144.258" enable-background="new 0 0 243.329 144.258"
	 xml:space="preserve">
<path d="M224.616,87.062c4.188-3.682,9.408-7.819,11.569-13.123c2.366-5.805-6.02-10.415-10.767-10.938l1.531-4.583
	c6.287,0.69,14.31,5.86,14.623,12.812c0.156,3.479-1.78,6.766-3.805,9.442c-2.381,3.148-5.265,5.889-8.201,8.511h13.762v4.87
	h-19.994l-2.578-3.432L224.616,87.062z"/>
<path d="M184.25,95.005c3.939-2.501,4.682-8.835,5.273-12.972c1.597-11.159,1.116-22.438,1.683-33.659
	c5.827,0.014,11.654,0.043,17.481,0.043v-7.306c-5.673,0-11.347-0.026-17.02-0.041c0.979-9.42,7.626-45.712,23.867-29.428
	l5.17-5.171c-18.904-18.873-31.724,7.968-34.772,23.958c-2.096,10.993-2.085,22.047-2.371,33.179
	c-0.156,6.101-0.376,12.256-1.312,18.296c-0.282,1.817-0.466,5.037-1.828,6.516L184.25,95.005z"/>
<path d="M140.881,95.053c-15.997,0-14.969-17.698-5.97-25.687c5.693-5.054,16.372-11.816,24.454-9.29
	c0.152-6.929-1.394-11.272-8.908-11.559c-5.915-0.217-11.925,2.647-17.301,4.737l-2.648-6.803
	c13.437-5.229,35.227-10.198,36.117,10.458c0.261,6.036-0.374,12.068-0.219,18.098c0.117,3.857,0.706,11.43,4.705,13.571
	c-3.477,6.498-3.477,6.498-3.443,6.437c-3.729-1.99-5.791-6.021-6.977-9.896C155.767,90.065,148.04,95.053,140.881,95.053z
	 M156.237,66.951c-6.542,0-29.718,13.315-18.238,19.986c5.428,3.153,12.851-2.917,16.592-6.149
	C159.438,76.599,162.827,66.951,156.237,66.951z"/>
<path d="M121.801,57.74l-2.823-6.733c-4.961,2.104-10.334,4.002-14.393,7.659l-0.055-17.916l-7.175,0.025l0.133,42.331
	l-0.031,12.045l7.271,0.018l-0.05-12.001c0.034-6.156-0.149-14.383,4.73-19.003C112.753,60.998,117.634,59.509,121.801,57.74z"/>
<polygon points="70.364,95.114 70.2,40.652 77.505,40.627 77.669,95.088 "/>
<path d="M80.546,26.09c-0.296,3.677-3.505,5.924-7.488,5.593c-3.975-0.323-6.568-3.057-6.271-6.728
	c0.306-3.67,3.409-7.105,7.39-6.776C78.154,18.509,80.854,22.42,80.546,26.09z"/>
<path d="M57.187,32.383l-2.199-6.969c-7.738,2.438-11.356,10.249-13.715,16.101C23.525,37.199,2.822,54.598,0.195,71.735
	c-1.402,9.143,4.938,15.46,13.672,16.949c10.003,1.706,21.09-2.655,28.074-9.816c-0.28,2.986-0.608,6.461-0.96,10.205
	c-12.681,8.166-28.577,24.618-23.632,41.43c2.192,7.453,10.344,15.384,18.713,13.465c6.69-1.533,7.614-8.27,8.232-14.029
	c2.167-20.173,4.177-40.391,5.868-60.609l-7.011-3.029c-5.659,7.138-11.748,13.498-21.177,15.104
	c-5.625,0.958-15.427-0.15-14.658-7.816c0.823-8.204,7.447-16.27,14.257-20.416c6.971-4.245,20.584-9.119,24.157,1.671l6.931-2.293
	c-1.047-3.173-2.706-5.747-4.871-7.663C49.72,40.055,52.37,33.899,57.187,32.383z M36.598,133.068
	c-0.457,3.933-2.986,4.638-6.201,2.847c-4.145-2.31-6.675-6.781-6.449-11.503c0.507-10.617,8.078-19.549,16.116-25.764
	C38.782,112.083,37.371,126.385,36.598,133.068C36.132,137.077,37.371,126.385,36.598,133.068z"/>
</svg>
